<svg width="292" height="267" xmlns="http://www.w3.org/2000/svg">
    <g fill="#002D5C" fill-rule="nonzero">
        <path d="M53.653 242.625L67 258h-9.424l-12.013-13.625V258H38v-29h7.563v13.13h.081L55.19 229h8.291zM86.519 236.003l4.851 11.227H82.15l4.37-11.227zm4.21-7.003h-8.66L70 258h7.899l2.245-5.747h13.391L95.981 258H104l-13.271-29zM140.962 258H135l-15.885-17.94V258H112v-29h6.538l15.385 17.066V229H141v29zM179.278 237.999l-.456-.238c-3.307-1.625-6.88-2.537-10.11-2.537-6.386 0-10.376 3.607-10.376 9.474 0 5.233 3.914 8.96 9.35 8.96 1.748 0 3.42-.357 5.093-1.071v-3.528h-4.067v-5.63H180v12.488c-2.813 2.537-7.374 4.083-12.163 4.083-9.882 0-16.837-6.422-16.837-15.5 0-9.276 6.917-15.5 17.142-15.5 2.47 0 5.093.357 7.335 1.03 1.406.397 2.09.675 3.839 1.467V238h-.038zM216.334 244.698c0 5.312-3.932 9.157-9.294 9.157-5.6 0-9.414-3.726-9.414-9.196 0-5.67 3.654-9.277 9.295-9.277 5.759 0 9.453 3.647 9.413 9.316zm7.666-.158c0-8.761-7.467-15.54-17-15.54-9.612 0-17 6.779-17 15.54 0 8.681 7.388 15.46 16.88 15.46 9.653 0 17.12-6.7 17.12-15.46zM254 258h-21v-29h6.938v23.565H254zM217.05 121.908c-1.165 3.11-2.952 8.164-4.312 11.546-3.107 7.814-5.516 13.918-11.46 19.943-.193.311-.155.311-.193.739-1.243 12.673 0 24.57.777 29.584.35 1.322 1.204 2.45 2.408 2.45 8.196 0 10.566-.273 20.16.077 14.412.544 15.19 8.514 12.82 10.652-3.03 2.721-8.663 2.605-12.042 2.605 5.749 5.209 1.36 10.068-2.37 10.068-9.789 0-29.678.428-45.76.428-5.632 0-9.361-5.637-10.177-9.486-.777-9.719-.894-20.837-1.942-27.174-.233-1.438-1.127-4.47-2.603-6.414-3.03-.194-5.671.35-9.44-1.594-16.742 12.48-30.687 24.57-48.168 32.267-9.128 4.004-24.705 8.824-38.3 11.196-7.42 1.283-17.287 1.05-19.579.466-3.185-.816-6.565-2.954-6.837-5.637-.31-2.993 1.438-4.51 13.169-6.764 7.109-1.36 17.985-4.082 25.482-6.609 11.81-4.004 26.104-11.973 35.272-22.664 4.195-4.899 7.108-11.08 8.857-18.233 4.894-19.904 5.127-40.236 20.277-59.285 11.304-14.19 25.016-20.332 37.99-22.004 2.253-.272 10.41.428 14.101.04.233-.078 2.098-.078 3.535-1.44.816-1.01 3.263-3.226 6.41-5.52.038-5.559-.195-12.012-.117-17.882 0-.544-1.243-2.294-3.224-3.732-2.447-1.788-6.837-5.326-9.945-8.475-3.962-4.004-6.254-8.32-5.244-9.641 2.215-2.877 14.84 1.322 17.092 2.1 2.448.854 5.594 2.837 7.459 3.342.427.117.97.117 1.437-.233 3.224-2.721 6.875-3.46 10.799-3.46 1.515-3.537 2.913-6.53 4.894-10.069 2.292-4.043 4.856-7.386 8.507-7.075 1.787 1.477 2.253 4.665 2.253 6.609.04 2.488-1.631 9.486-3.107 15.589-.117.467-.311 2.333.039 2.76.777.894 2.525 2.06 3.573 3.421 6.526 8.475 12.858 15.084 13.868 17.378 1.049 2.371.816 9.369-1.631 10.924-6.876 4.315-8.236-.933-10.217-2.372-3.38-2.41-4.156-1.322-4.195-.039-.466 9.33-.893 22.237-8.43 44.785 2.176 1.477 3.458 2.177 6.06 4.082.777.7 2.68 3.032 3.652 6.375.544 1.828.816 2.45 1.593 6.065.97 4.237-2.72 6.103-4.196 6.22-1.165.117-2.214-1.088-2.602-1.672-.466-.855-.777-1.593-1.321-2.41.039 2.683-.078 3.538-.427 4.937-.233.856-2.253 4.16-4.973 4.821-1.786.428-4.467-2.216-4.467-3.615 0-1.128 1.438-3.577 1.088-4.743-.7-2.333-4.35-5.248-5.205-4.665-.272.35-.7.66-1.088 1.438zm20.16-78.373c.972-3.304-5.088-5.093-6.37-4.587-.893 2.682 3.457 4.937 6.37 4.587zm-50.498 146.483c.388-1.75.855-4.782 1.088-7.697.155-1.905.116-3.46.116-4.16-.078-1.71-2.37-14.656-3.729-14.695-1.127-.039-4.35.583-5.283 3.266-.777 2.293-.622 4.587-.622 4.587-.155-1.788-.077 2.916.505 8.902.467 4.549.933 11.43 1.632 13.762.194.622 1.865 2.06 3.38 2.255h2.99c-.155-1.672-.271-4.393-.077-6.22zm13.907-78.49a91.625 91.625 0 01-5.283 5.91c.699 1.127 6.836 6.18 7.807 6.53 2.098-2.254 4.506-4.859 6.798-7.658l-9.322-4.782zm18.8-9.952c4.7-9.641 8.624-22.587 10.295-41.052l-5.866-.467c-.816 4.432-2.991 19.71-13.246 37.204l8.818 4.315"/>
        <path d="M54.98 154c7.855 0 14.02 6.196 14.02 14.118C69 175.804 62.717 182 54.941 182 47.244 182 41 175.686 41 167.96c0-7.764 6.244-13.96 13.98-13.96zm.079 1.373c-7.03 0-12.724 5.607-12.724 12.627 0 6.941 5.694 12.667 12.606 12.667 6.951 0 12.685-5.687 12.685-12.589.039-7.02-5.616-12.705-12.567-12.705z"/>
        <path d="M62 175.99c-.963 0-1.726.038-2.448-.037-.281-.037-.522-.375-.723-.6-1.123-1.536-2.127-3.11-3.33-4.572-1.004-1.236-1.807-1.424-3.372-1.161v6.333H50V161c1.886.075 3.813.037 5.619.3 1.926.3 3.09 1.611 3.29 3.223.201 1.799-.36 3.26-2.126 4.197l-.08.038A476.698 476.698 0 0162 175.99zm-9.793-8.357c.964-.037 1.806-.037 2.65-.15 1.043-.15 1.725-1.011 1.805-2.023.08-1.012-.401-1.987-1.324-2.249-1.004-.262-2.047-.3-3.17-.412.04 1.686.04 3.148.04 4.834z"/>
    </g>
</svg>
